<svg width="27" height="27" viewBox="0 0 27 27" fill="none" xmlns="http://www.w3.org/2000/svg">
<mask id="mask0_2002_11" style="mask-type:alpha" maskUnits="userSpaceOnUse" x="0" y="0" width="27" height="27">
<rect y="0.111115" width="26.6667" height="26.6667" fill="#D9D9D9"/>
</mask>
<g mask="url(#mask0_2002_11)">
<path d="M2.67188 22.1105C2.11632 22.1105 1.6441 21.916 1.25521 21.5271C0.86632 21.1382 0.671875 20.666 0.671875 20.1105C0.671875 19.5549 0.86632 19.0827 1.25521 18.6938C1.6441 18.3049 2.11632 18.1105 2.67188 18.1105C3.22743 18.1105 3.69965 18.3049 4.08854 18.6938C4.47743 19.0827 4.67188 19.5549 4.67188 20.1105C4.67188 20.666 4.47743 21.1382 4.08854 21.5271C3.69965 21.916 3.22743 22.1105 2.67188 22.1105ZM11.5608 22.1105C11.0052 22.1105 10.533 21.916 10.1441 21.5271C9.75521 21.1382 9.56076 20.666 9.56076 20.1105C9.56076 19.5549 9.75521 19.0827 10.1441 18.6938C10.533 18.3049 11.0052 18.1105 11.5608 18.1105C12.1163 18.1105 12.5885 18.3049 12.9774 18.6938C13.3663 19.0827 13.5608 19.5549 13.5608 20.1105C13.5608 20.666 13.3663 21.1382 12.9774 21.5271C12.5885 21.916 12.1163 22.1105 11.5608 22.1105ZM7.11632 17.666C6.56076 17.666 6.08854 17.4716 5.69965 17.0827C5.31076 16.6938 5.11632 16.2216 5.11632 15.666C5.11632 15.1105 5.31076 14.6382 5.69965 14.2494C6.08854 13.8605 6.56076 13.666 7.11632 13.666C7.67188 13.666 8.1441 13.8605 8.53299 14.2494C8.92187 14.6382 9.11632 15.1105 9.11632 15.666C9.11632 16.2216 8.92187 16.6938 8.53299 17.0827C8.1441 17.4716 7.67188 17.666 7.11632 17.666ZM16.0052 17.666C15.4497 17.666 14.9774 17.4716 14.5885 17.0827C14.1997 16.6938 14.0052 16.2216 14.0052 15.666C14.0052 15.1105 14.1997 14.6382 14.5885 14.2494C14.9774 13.8605 15.4497 13.666 16.0052 13.666C16.5608 13.666 17.033 13.8605 17.4219 14.2494C17.8108 14.6382 18.0052 15.1105 18.0052 15.666C18.0052 16.2216 17.8108 16.6938 17.4219 17.0827C17.033 17.4716 16.5608 17.666 16.0052 17.666ZM2.67188 13.2216C2.11632 13.2216 1.6441 13.0271 1.25521 12.6382C0.86632 12.2494 0.671875 11.7771 0.671875 11.2216C0.671875 10.666 0.86632 10.1938 1.25521 9.80491C1.6441 9.41602 2.11632 9.22157 2.67188 9.22157C3.22743 9.22157 3.69965 9.41602 4.08854 9.80491C4.47743 10.1938 4.67188 10.666 4.67188 11.2216C4.67188 11.7771 4.47743 12.2494 4.08854 12.6382C3.69965 13.0271 3.22743 13.2216 2.67188 13.2216ZM11.5608 13.2216C11.0052 13.2216 10.533 13.0271 10.1441 12.6382C9.75521 12.2494 9.56076 11.7771 9.56076 11.2216C9.56076 10.666 9.75521 10.1938 10.1441 9.80491C10.533 9.41602 11.0052 9.22157 11.5608 9.22157C12.1163 9.22157 12.5885 9.41602 12.9774 9.80491C13.3663 10.1938 13.5608 10.666 13.5608 11.2216C13.5608 11.7771 13.3663 12.2494 12.9774 12.6382C12.5885 13.0271 12.1163 13.2216 11.5608 13.2216ZM7.11632 8.77713C6.56076 8.77713 6.08854 8.58269 5.69965 8.1938C5.31076 7.80491 5.11632 7.33269 5.11632 6.77713C5.11632 6.22157 5.31076 5.74935 5.69965 5.36046C6.08854 4.97157 6.56076 4.77713 7.11632 4.77713C7.67188 4.77713 8.1441 4.97157 8.53299 5.36046C8.92187 5.74935 9.11632 6.22157 9.11632 6.77713C9.11632 7.33269 8.92187 7.80491 8.53299 8.1938C8.1441 8.58269 7.67188 8.77713 7.11632 8.77713ZM16.0052 8.77713C15.4497 8.77713 14.9774 8.58269 14.5885 8.1938C14.1997 7.80491 14.0052 7.33269 14.0052 6.77713C14.0052 6.22157 14.1997 5.74935 14.5885 5.36046C14.9774 4.97157 15.4497 4.77713 16.0052 4.77713C16.5608 4.77713 17.033 4.97157 17.4219 5.36046C17.8108 5.74935 18.0052 6.22157 18.0052 6.77713C18.0052 7.33269 17.8108 7.80491 17.4219 8.1938C17.033 8.58269 16.5608 8.77713 16.0052 8.77713Z" fill="white"/>
</g>
</svg>
